# xmcd
#
# Track frame offsets:
#	150
#	17195
#	28840
#	55874
#
# Disc length: 1200 seconds
#
# Revision: 0
# Processed by: cddbd v1.4PL0 Copyright (c) Steve Scherf et al.
# Submitted via: dBpowerAMP V4.0
#
DISCID=2d04ae04
DTITLE=Kasey Chambers  - True Colours
DYEAR=2003
DGENRE=Country
TTITLE0=True Colours
TTITLE1=If I Could 
TTITLE2=Lonely
TTITLE3=DATA
EXTD=
EXTT0=
EXTT1=
EXTT2=
EXTT3=
PLAYORDER=
